<svg xmlns="http://www.w3.org/2000/svg" xmlns:xlink="http://www.w3.org/1999/xlink" viewBox="0 0 614.62 436.33"><defs><style>.cls-1,.cls-10,.cls-11,.cls-2,.cls-3,.cls-4,.cls-5,.cls-7,.cls-8,.cls-9{fill:none;}.cls-11,.cls-2,.cls-4,.cls-8{stroke:#000;}.cls-11,.cls-2,.cls-3,.cls-4,.cls-5,.cls-7{stroke-linecap:round;}.cls-2,.cls-3,.cls-4,.cls-5,.cls-7{stroke-linejoin:round;}.cls-11,.cls-2,.cls-5,.cls-8,.cls-9{stroke-width:3px;}.cls-10,.cls-3,.cls-5,.cls-7,.cls-9{stroke:#fff;}.cls-3,.cls-4{stroke-width:2.5px;}.cls-6{clip-path:url(#clip-path);}.cls-10,.cls-11,.cls-8,.cls-9{stroke-miterlimit:10;}.cls-10{stroke-width:2px;}.cls-12{fill:#fff;}</style><clipPath id="clip-path"><rect class="cls-1" x="247.6" y="140.83" width="124" height="91.11"/></clipPath></defs><title>资源 1</title><g id="图层_2" data-name="图层 2"><g id="图层_1-2" data-name="图层 1"><path class="cls-2" d="M343,197.3h75.2a10.31,10.31,0,0,1,10.31,10.31V253"/><path class="cls-2" d="M428.51,270.76V407.53a10.32,10.32,0,0,1-10.31,10.31H193.07a10.32,10.32,0,0,1-10.31-10.31V207.61a10.31,10.31,0,0,1,10.31-10.31h74.67"/><path class="cls-2" d="M340.34,217.67h63.29A5.33,5.33,0,0,1,409,223v5.22a5.33,5.33,0,0,1-5.33,5.33h-196a5.33,5.33,0,0,1-5.33-5.33V223a5.33,5.33,0,0,1,5.33-5.33h64"/><line class="cls-3" x1="193.46" y1="140.71" x2="193.46" y2="149.6"/><line class="cls-3" x1="197.94" y1="145.13" x2="188.93" y2="145.13"/><line class="cls-4" x1="159.68" y1="119.37" x2="159.68" y2="128.27"/><line class="cls-4" x1="164.16" y1="123.79" x2="155.15" y2="123.79"/><line class="cls-3" x1="588.48" y1="206.27" x2="588.48" y2="215.17"/><line class="cls-3" x1="592.96" y1="210.7" x2="583.95" y2="210.7"/><line class="cls-4" x1="590.26" y1="234.71" x2="590.26" y2="243.61"/><line class="cls-4" x1="594.74" y1="239.13" x2="585.73" y2="239.13"/><line class="cls-3" x1="555.32" y1="115.22" x2="555.32" y2="127.22"/><line class="cls-3" x1="561.37" y1="121.27" x2="549.37" y2="121.27"/><line class="cls-3" x1="343.76" y1="71.44" x2="343.76" y2="83.44"/><line class="cls-3" x1="349.82" y1="77.5" x2="337.82" y2="77.5"/><line class="cls-4" x1="47.4" y1="66.69" x2="47.4" y2="73.97"/><line class="cls-4" x1="51.09" y1="70.39" x2="43.82" y2="70.39"/><line class="cls-3" x1="138.35" y1="256.42" x2="138.35" y2="265.63"/><line class="cls-3" x1="143.04" y1="261.05" x2="133.77" y2="261.05"/><line class="cls-3" x1="19.18" y1="202.58" x2="19.18" y2="209.86"/><line class="cls-3" x1="22.81" y1="206.16" x2="15.6" y2="206.16"/><line class="cls-4" x1="477.9" y1="320.21" x2="477.9" y2="329.48"/><line class="cls-4" x1="482.48" y1="324.79" x2="473.32" y2="324.79"/><line class="cls-4" x1="107.23" y1="251.77" x2="107.23" y2="261.04"/><line class="cls-4" x1="111.81" y1="256.34" x2="102.65" y2="256.34"/><circle class="cls-3" cx="546.48" cy="242.07" r="3.43"/><line class="cls-3" x1="559.61" y1="387.2" x2="566.65" y2="392.64"/><line class="cls-3" x1="565.84" y1="386.36" x2="560.33" y2="393.49"/><line class="cls-4" x1="587.63" y1="406.74" x2="594.67" y2="412.18"/><line class="cls-4" x1="593.87" y1="405.9" x2="588.36" y2="413.03"/><circle class="cls-3" cx="596.36" cy="383.45" r="3.43"/><circle class="cls-3" cx="107.15" cy="289.57" r="7.4"/><circle class="cls-4" cx="418.26" cy="156.96" r="5.2"/><circle class="cls-4" cx="465.82" cy="216.07" r="5.2"/><circle class="cls-4" cx="180.04" cy="99.59" r="5.2"/><circle class="cls-3" cx="486.66" cy="225.16" r="3.6"/><circle class="cls-4" cx="337.47" cy="103.07" r="5.2"/><circle class="cls-3" cx="311.15" cy="92.66" r="3.6"/><circle class="cls-3" cx="475.6" cy="191.77" r="3.6"/><polyline class="cls-2" points="541.96 191.44 525.08 185.53 577.52 159.2 570.19 199.87 547.97 193.31 577.52 159.2"/><line class="cls-2" x1="547.97" y1="206.09" x2="547.97" y2="193.31"/><path class="cls-5" d="M121.15,106.72a19.55,19.55,0,1,1-2.75-10"/><circle class="cls-5" cx="101.6" cy="106.72" r="3.67"/><line class="cls-5" x1="101.6" y1="79.72" x2="101.6" y2="94.16"/><line class="cls-5" x1="101.6" y1="119.28" x2="101.6" y2="133.72"/><line class="cls-5" x1="128.6" y1="106.72" x2="114.15" y2="106.72"/><line class="cls-5" x1="89.04" y1="106.72" x2="74.6" y2="106.72"/><polyline class="cls-2" points="45.27 296.44 44.07 282.08 55.55 289.4 55.7 270.84"/><path class="cls-2" d="M73.13,275.33,76,280a5.89,5.89,0,0,1-2,8.09L43.62,306.55a5.9,5.9,0,0,1-8.1-2L25.13,287.5a5.89,5.89,0,0,1,2-8.09l30.37-18.49a5.89,5.89,0,0,1,8.09,2l2.72,4.47"/><line class="cls-2" x1="40.03" y1="266.47" x2="42.28" y2="270.17"/><line class="cls-2" x1="74.46" y1="302.09" x2="61.81" y2="302.25"/><polyline class="cls-2" points="58.86 297.41 61.81 302.25 55.85 313.41"/><line class="cls-2" x1="50.15" y1="170.94" x2="137.26" y2="208.27"/><line class="cls-2" x1="140.82" y1="199.39" x2="108.82" y2="167.39"/><line class="cls-2" x1="566.71" y1="431.27" x2="479.6" y2="393.94"/><line class="cls-2" x1="476.04" y1="402.83" x2="508.04" y2="434.83"/><g class="cls-6"><circle class="cls-3" cx="305.64" cy="200.53" r="36.91"/><path class="cls-7" d="M321.1,181.51l-15.39-6.77v17l4.26,5.87V181l6.88,3v25.4l-7.62-4.64-14.81-20.62h-.77a3.48,3.48,0,0,0-3.48,3.49v31.88l11.29,4.91h0l4.25,1.84V214.83L301.46,209v11.09l-7-3.08V191.79l11.39,15.83,11,6.85h.77a3.49,3.49,0,0,0,3.48-3.5V185.9h0Z"/></g><path class="cls-8" d="M234.54,130.83l11.05,6.2a1.72,1.72,0,0,0,1.29.16h0a1.69,1.69,0,0,0,1-.85L259,115a1.57,1.57,0,0,0,.16-.46h0a.77.77,0,0,0,0-.15s0,0,0,0v-.17a1.7,1.7,0,0,0-.09-.5.08.08,0,0,0,0-.05.49.49,0,0,0,0-.11l0-.06a.2.2,0,0,0,0-.08.43.43,0,0,0,0-.07.56.56,0,0,1,0-.08l0,0-.06-.08,0,0-.07-.08,0,0-.09-.07,0,0-.09-.06-.08,0-.07,0-.15-.07-.07,0-.09,0-.08,0-.08,0h-.5l-.16,0h0c-10,2.22-16.53-.71-16.59-.74a1.71,1.71,0,0,0-2.15.61c0,.06-3.92,5.88-13.8,9.2h-.05s-.06,0-.08,0l-.09,0-.06,0-.09,0-.05,0a.47.47,0,0,0-.09.06l0,0a.6.6,0,0,0-.08.08l0,0-.08.09,0,0a.27.27,0,0,0-.07.08l0,0a.41.41,0,0,0-.05.09l0,0,0,.09,0,.06,0,.08,0,.08,0,.08s0,0,0,.08,0,.05,0,.08,0,.05,0,.08a.28.28,0,0,1,0,.09v.24s0,.06,0,.09a.07.07,0,0,0,0,.05c2.3,12.38,7,21,13.81,25.6a19.57,19.57,0,0,0,13.52,3.35,1.26,1.26,0,0,0,.33-.05l.07,0a1.2,1.2,0,0,0,.31-.13,18.7,18.7,0,0,0,7.12-5.47c3.06-3.75,6.33-10.59,4.52-21.87"/><path class="cls-9" d="M129.68,423.66a6,6,0,0,1-8.15,2.42L98.05,413.36a6,6,0,0,1-2.42-8.14l12.72-23.48a6,6,0,0,1,8.15-2.42L140,392a6,6,0,0,1,2.42,8.15l-12.72,23.47Z"/><line class="cls-10" x1="110.17" y1="388.69" x2="121.12" y2="394.62"/><line class="cls-10" x1="118.61" y1="386.18" x2="112.68" y2="397.13"/><line class="cls-10" x1="105.71" y1="398.48" x2="110.13" y2="413.34"/><line class="cls-10" x1="100.49" y1="408.12" x2="115.35" y2="403.7"/><line class="cls-10" x1="124.6" y1="396.51" x2="135.56" y2="402.45"/><line class="cls-10" x1="118.21" y1="408.32" x2="129.27" y2="414.31"/><line class="cls-10" x1="115.55" y1="413.21" x2="126.62" y2="419.21"/><line class="cls-3" x1="19.19" y1="374.2" x2="33.91" y2="394.62"/><polyline class="cls-3" points="35.41 384.86 49.42 374.76 42.56 365.25 22.98 379.37"/><polyline class="cls-3" points="1.93 396.87 1.25 402.51 26.48 384.32"/><line class="cls-3" x1="7.71" y1="402.95" x2="1.25" y2="402.51"/><polyline class="cls-4" points="150.05 323.96 114.58 335.64 125.91 351.74 81.44 368.67"/><path class="cls-3" d="M395.67,127.52a15.72,15.72,0,0,0,.13-2.74,14.57,14.57,0,0,0-1.36-5.67,1.25,1.25,0,0,0-.42-.49.83.83,0,0,0-.11-.15,1.36,1.36,0,0,0-1.92.07l-7.33,7.95a3.53,3.53,0,0,1-4.88.2,3.46,3.46,0,0,1-.19-4.88l7.33-7.94a1.42,1.42,0,0,0,.36-1,1.35,1.35,0,0,0-.44-.94,1.53,1.53,0,0,0-.27-.17,1.25,1.25,0,0,0-.57-.42,14.67,14.67,0,0,0-5.72-.9A15,15,0,0,0,366.37,129a15.77,15.77,0,0,0,.8,2.31l-12.24,13.27a6.16,6.16,0,0,0,.35,8.71,6.08,6.08,0,0,0,4.42,1.64,6.16,6.16,0,0,0,4.29-2l12.29-13.32a14.87,14.87,0,0,0,13.79-2.43"/><path class="cls-5" d="M532.17,354.3l-20-6a8.24,8.24,0,1,0-4.69,15.8l20.05,5.95"/><path class="cls-5" d="M541.91,361.77a3.34,3.34,0,1,0,2.25,4.15,3.33,3.33,0,0,0-2.25-4.15"/><path class="cls-5" d="M543.38,356.82a8.5,8.5,0,1,0,5.73,10.57,8.5,8.5,0,0,0-5.73-10.57"/><path class="cls-5" d="M507.66,334.23l38.91,11.55a8.43,8.43,0,0,1,5.68,10.48h0"/><path class="cls-2" d="M433.82,89.33A18.78,18.78,0,0,1,419.66,56.4"/><path class="cls-2" d="M448.56,62a18.83,18.83,0,0,0-24.17-8.55,1,1,0,0,0-.51,1.3l0,0a.09.09,0,0,0,0,0L430.54,70s0,0,0,0a.06.06,0,0,1,0,0,1,1,0,0,0,1.3.51l16.15-7a1.33,1.33,0,0,0,.54-1.58"/><polyline class="cls-2" points="437.46 87.57 440.39 78.97 447.38 80.88 451.94 69.84 448.49 71.28"/><line class="cls-2" x1="453.55" y1="73.08" x2="451.94" y2="69.84"/><line class="cls-2" x1="273.08" y1="22.35" x2="274.38" y2="27.12"/><path class="cls-2" d="M267.87,58.67,264.13,45a14.54,14.54,0,1,1,28.05-7.65L295.92,51"/><line class="cls-2" x1="262.85" y1="59.97" x2="301.15" y2="49.53"/><line class="cls-2" x1="277" y1="61.72" x2="289.75" y2="58.24"/><path class="cls-5" d="M183.52,37.39a8.53,8.53,0,0,1-12.05-.19l-5.19-5.36A8.52,8.52,0,0,1,178.52,20l2.23,2.3"/><path class="cls-5" d="M177.63,31.21h0a8.52,8.52,0,0,1,12.05.19l5.18,5.35a8.52,8.52,0,0,1-12.24,11.86l-1.48-1.53"/><path class="cls-5" d="M377.45,37.94l-12.14,4.34L355.5,15.13a10.21,10.21,0,0,1,6.1-13.06,10.44,10.44,0,0,1,13,6.09L377,14.68a1.56,1.56,0,0,0,2,.93l6.51-2.37a10.42,10.42,0,0,1,13.05,6.09,10.17,10.17,0,0,1-6.09,13.06l-3.22,1.17"/><path class="cls-9" d="M561.92,312.5l7.64-10.7,13-1.86a2.33,2.33,0,0,0,1.63-3.89l-7.8-10.56,2.27-12.95a2.33,2.33,0,0,0-3.2-2.75L563,274l-11.61-6.14a2.33,2.33,0,0,0-3.6,2.19l.1,13.14-9.44,9.15a2.33,2.33,0,0,0,1,4.11l13,4.09"/><path class="cls-9" d="M521.44,73.42c2.09-1.47,2.73-.9,1.41,1.32l-16.7,28,23.1,15.13a1.5,1.5,0,0,1,.06,2.64L473,162.32c-2.06,1.53-2.66,1-1.33-1.2l17.47-29-27.76-13.83a1.26,1.26,0,0,1-.17-2.37Z"/><path class="cls-11" d="M604.4,354.9a14.9,14.9,0,0,1-16.34-2.67l-1.4-1.27-1.44-1.31-3.62.12c-3,.25-4.73-.58-4.84-3.71l-.27-7.95c-.11-3,1.81-4.15,4.58-3.9l3.74-.13a31.7,31.7,0,0,1,2.52-2.91,14.9,14.9,0,0,1,24.85,15.39"/><line class="cls-11" x1="581.29" y1="334.27" x2="581.82" y2="349.7"/><line class="cls-11" x1="572.85" y1="348.13" x2="572.45" y2="336.46"/><path class="cls-4" d="M480.5,265.08a10.07,10.07,0,1,1-9.66-1,10.32,10.32,0,0,1,2.77-.73m37.28,3L508,259.43l-23.5,9.94m17.35-.34-2.43-5.75"/><path class="cls-12" d="M217.6,339.28c0,9.29,7.23,12.9,15.43,12.9,5.38,0,13.59-1.56,13.59-8.69,0-7.63-10.56-8.7-20.72-11.54-10.36-2.54-20.81-6.93-20.81-19.83,0-14.37,13.48-21.11,26.09-21.11,14.56,0,27.95,6.35,27.95,22.48H244.27c-.49-8.31-6.35-10.56-13.78-10.56-4.88,0-10.55,2.05-10.55,7.92,0,5.37,3.32,6.15,20.81,10.55,5.18,1.17,20.72,4.59,20.72,20.33,0,12.8-10,22.37-29,22.37-15.44,0-30-7.62-29.71-24.82Z"/><path class="cls-12" d="M317.07,316.12c-1.08-6.93-7.72-12.21-15.24-12.21-13.78,0-19,11.73-19,23.94,0,11.63,5.18,23.35,19,23.35,9.38,0,14.65-6.35,15.83-15.63h14.85C331,353.06,319,364.1,301.83,364.1c-21.5,0-34.3-16.12-34.3-36.25,0-20.72,12.8-36.84,34.3-36.84,15.24,0,28.24,9,30.09,25.11Z"/><path class="cls-12" d="M374.23,291c21.5,0,34.3,16.12,34.3,36.84,0,20.13-12.8,36.25-34.3,36.25S339.94,348,339.94,327.85C339.94,307.13,352.74,291,374.23,291Zm0,60.19c13.78,0,19-11.72,19-23.35,0-12.21-5.18-23.94-19-23.94s-19,11.73-19,23.94C355.28,339.48,360.46,351.2,374.23,351.2Z"/><path d="M317.07,316.12h14.85c0-.41-.1-.81-.17-1.22H316.82C316.92,315.3,317,315.71,317.07,316.12Z"/><path d="M268.28,319.43h15.5a27.56,27.56,0,0,1,1.46-4.53H269.36A44,44,0,0,0,268.28,319.43Z"/><path d="M315,310.92h15.83a27.9,27.9,0,0,0-1.78-4.53h-18.7A14.91,14.91,0,0,1,315,310.92Z"/><path d="M357.64,314.9H341.77a41.53,41.53,0,0,0-1.08,4.53h15.5A28.53,28.53,0,0,1,357.64,314.9Z"/><path d="M393.19,327.85v.28h15.34v-.28c0-1.44-.07-2.86-.19-4.25H393A39.92,39.92,0,0,1,393.19,327.85Z"/><path d="M345.55,306.39a34.5,34.5,0,0,0-2.33,4.53h16.64a16.37,16.37,0,0,1,4.81-4.53Z"/><path d="M248.19,323.6H209.13a20.81,20.81,0,0,0,6,4.53h40.59A25,25,0,0,0,248.19,323.6Z"/><path d="M233,319.43c-6.57-1.72-10-2.88-11.66-4.53H205.27a17.09,17.09,0,0,0,1.21,4.53Z"/><path d="M390.82,314.9a27.56,27.56,0,0,1,1.46,4.53h15.5a44,44,0,0,0-1.08-4.53Z"/><path d="M355.28,327.85a39.92,39.92,0,0,1,.22-4.25H340.13c-.13,1.39-.19,2.81-.19,4.25v.28h15.34Z"/><path d="M270.82,310.92h16.64a16.21,16.21,0,0,1,4.8-4.53H273.14A34.45,34.45,0,0,0,270.82,310.92Z"/><path d="M383.8,306.39a16.21,16.21,0,0,1,4.8,4.53h16.64a34.45,34.45,0,0,0-2.32-4.53Z"/><path d="M243.9,310.92H259a23.16,23.16,0,0,0-.89-4.53H241.54A9.52,9.52,0,0,1,243.9,310.92Z"/><path d="M282.87,327.85a39.92,39.92,0,0,1,.22-4.25H267.72c-.12,1.39-.19,2.81-.19,4.25v.28h15.34Z"/><path d="M205.89,306.39a20.12,20.12,0,0,0-.77,4.53h14.82v-.07a6.9,6.9,0,0,1,1.49-4.46Z"/></g></g></svg>